<?xml version="1.0" encoding="UTF-8" standalone="no"?>
<!-- Created with Inkscape (http://www.inkscape.org/) -->

<svg
   width="128mm"
   height="128mm"
   viewBox="0 0 128 128"
   version="1.1"
   id="svg5"
   inkscape:version="1.1.1 (3bf5ae0d25, 2021-09-20)"
   sodipodi:docname="random_selector.svg"
   inkscape:export-filename="D:\dev\shotcaller-godot\Prototype\BT\Icons\random_selector.png"
   inkscape:export-xdpi="6.3499999"
   inkscape:export-ydpi="6.3499999"
   xmlns:inkscape="http://www.inkscape.org/namespaces/inkscape"
   xmlns:sodipodi="http://sodipodi.sourceforge.net/DTD/sodipodi-0.dtd"
   xmlns="http://www.w3.org/2000/svg"
   xmlns:svg="http://www.w3.org/2000/svg">
  <sodipodi:namedview
     id="namedview7"
     pagecolor="#ffffff"
     bordercolor="#999999"
     borderopacity="1"
     inkscape:pageshadow="0"
     inkscape:pageopacity="0"
     inkscape:pagecheckerboard="0"
     inkscape:document-units="mm"
     showgrid="false"
     inkscape:zoom="0.74118967"
     inkscape:cx="143.68792"
     inkscape:cy="304.24061"
     inkscape:window-width="1920"
     inkscape:window-height="1017"
     inkscape:window-x="-8"
     inkscape:window-y="-8"
     inkscape:window-maximized="1"
     inkscape:current-layer="layer1" />
  <defs
     id="defs2">
    <marker
       style="overflow:visible;"
       id="Arrow2Mend"
       refX="0.0"
       refY="0.0"
       orient="auto"
       inkscape:stockid="Arrow2Mend"
       inkscape:isstock="true">
      <path
         transform="scale(0.6) rotate(180) translate(0,0)"
         d="M 8.7185878,4.0337352 L -2.2072895,0.016013256 L 8.7185884,-4.0017078 C 6.9730900,-1.6296469 6.9831476,1.6157441 8.7185878,4.0337352 z "
         style="stroke:context-stroke;fill-rule:evenodd;fill:context-stroke;stroke-width:0.62500000;stroke-linejoin:round;"
         id="path31016" />
    </marker>
    <marker
       style="overflow:visible;"
       id="Arrow1Lend"
       refX="0.0"
       refY="0.0"
       orient="auto"
       inkscape:stockid="Arrow1Lend"
       inkscape:isstock="true">
      <path
         transform="scale(0.8) rotate(180) translate(12.5,0)"
         style="fill-rule:evenodd;fill:context-stroke;stroke:context-stroke;stroke-width:1.0pt;"
         d="M 0.0,0.0 L 5.0,-5.0 L -12.5,0.0 L 5.0,5.0 L 0.0,0.0 z "
         id="path30992" />
    </marker>
    <marker
       style="overflow:visible"
       id="Arrow1Lstart"
       refX="0.0"
       refY="0.0"
       orient="auto"
       inkscape:stockid="Arrow1Lstart"
       inkscape:isstock="true">
      <path
         transform="scale(0.8) translate(12.5,0)"
         style="fill-rule:evenodd;fill:context-stroke;stroke:context-stroke;stroke-width:1.0pt"
         d="M 0.0,0.0 L 5.0,-5.0 L -12.5,0.0 L 5.0,5.0 L 0.0,0.0 z "
         id="path30989" />
    </marker>
  </defs>
  <g
     inkscape:label="Layer 1"
     inkscape:groupmode="layer"
     id="layer1">
    <g
       aria-label="1?"
       id="text9883"
       style="font-size:50.8px;line-height:1.25;stroke-width:0.264583">
      <path
         d="M 8.9396196,40.017002 H 17.125166 V 11.764464 L 8.2202837,13.550401 V 8.9863386 L 17.075557,7.2004011 h 5.010547 V 40.017002 h 8.185547 v 4.216797 H 8.9396196 Z"
         id="path8305" />
      <path
         d="m 44.658369,37.933408 h 5.035351 v 6.300391 h -5.035351 z m 4.886523,-3.646289 h -4.737695 v -3.819921 q 0,-2.505274 0.694531,-4.117578 0.694531,-1.612305 2.926953,-3.745508 l 2.232422,-2.207617 q 1.413867,-1.314649 2.033984,-2.480469 0.644922,-1.16582 0.644922,-2.38125 0,-2.207617 -1.637109,-3.571875 -1.612305,-1.364258 -4.291211,-1.364258 -1.95957,0 -4.191992,0.868164 -2.207617,0.868164 -4.613672,2.530078 V 9.3336042 q 2.331641,-1.4138672 4.712891,-2.1083984 2.406054,-0.6945313 4.960937,-0.6945313 4.564063,0 7.317383,2.4060547 2.778125,2.4060548 2.778125,6.3499998 0,1.885156 -0.892969,3.59668 -0.892969,1.686718 -3.125391,3.819922 l -2.182812,2.133203 q -1.16582,1.16582 -1.661914,1.835546 -0.471289,0.644922 -0.669727,1.26504 -0.148828,0.520898 -0.223242,1.265039 -0.07441,0.74414 -0.07441,2.033984 z"
         id="path8307" />
    </g>
    <g
       aria-label="2?"
       id="text15263"
       style="font-size:50.8px;line-height:1.25;stroke-width:0.264583">
      <path
         d="M 40.412783,80.127693 H 57.900088 V 84.34449 H 34.385244 v -4.216797 q 2.852539,-2.951758 7.763867,-7.912695 4.936133,-4.985742 6.201172,-6.424414 2.406055,-2.703711 3.348633,-4.564062 0.967383,-1.885157 0.967383,-3.695899 0,-2.951758 -2.083594,-4.812109 -2.058789,-1.860352 -5.382617,-1.860352 -2.356445,0 -4.985742,0.818555 -2.604492,0.818555 -5.581055,2.480469 V 49.09703 q 3.026172,-1.21543 5.655469,-1.835547 2.629297,-0.620117 4.812109,-0.620117 5.754688,0 9.177734,2.877343 3.423047,2.877344 3.423047,7.689453 0,2.282032 -0.868164,4.340821 -0.843359,2.033984 -3.100586,4.812109 -0.620117,0.719336 -3.943945,4.167187 -3.323828,3.423047 -9.376172,9.599414 z"
         id="path8300" />
      <path
         d="m 72.683681,78.0441 h 5.035351 v 6.30039 h -5.035351 z m 4.886523,-3.646289 h -4.737695 v -3.819922 q 0,-2.505274 0.694531,-4.117578 0.694532,-1.612305 2.926953,-3.745508 l 2.232422,-2.207617 q 1.413867,-1.314649 2.033985,-2.480469 0.644921,-1.16582 0.644921,-2.38125 0,-2.207617 -1.637109,-3.571875 -1.612305,-1.364258 -4.291211,-1.364258 -1.95957,0 -4.191992,0.868164 -2.207617,0.868164 -4.613672,2.530078 v -4.663281 q 2.331641,-1.413867 4.712891,-2.108398 2.406055,-0.694531 4.960937,-0.694531 4.564063,0 7.317383,2.406054 2.778125,2.406055 2.778125,6.35 0,1.885156 -0.892969,3.59668 -0.892969,1.686719 -3.12539,3.819922 l -2.182813,2.133203 q -1.16582,1.16582 -1.661914,1.835547 -0.471289,0.644921 -0.669726,1.265039 -0.148829,0.520898 -0.223243,1.265039 -0.07441,0.74414 -0.07441,2.033984 z"
         id="path8302" />
    </g>
    <g
       id="text19939"
       style="font-size:10.5833px;line-height:1.25;stroke-width:0.264583" />
    <g
       aria-label="3?"
       id="text22423"
       style="font-size:50.8px;line-height:1.25;stroke-width:0.264583">
      <path
         d="m 88.935518,104.77045 q 3.596679,0.76895 5.605859,3.19981 2.033984,2.43086 2.033984,6.00273 0,5.48184 -3.770312,8.48321 -3.770313,3.00136 -10.715625,3.00136 -2.331641,0 -4.812109,-0.47129 -2.455664,-0.44648 -5.084961,-1.36425 v -4.83692 q 2.083593,1.21543 4.564062,1.83555 2.480469,0.62012 5.18418,0.62012 4.71289,0 7.168554,-1.86035 2.480469,-1.86036 2.480469,-5.40743 0,-3.27422 -2.306836,-5.10976 -2.282031,-1.86035 -6.374804,-1.86035 h -4.316016 v -4.11758 h 4.514453 q 3.695898,0 5.655469,-1.46348 1.95957,-1.488279 1.95957,-4.266404 0,-2.852539 -2.033984,-4.365625 -2.00918,-1.537891 -5.779492,-1.537891 -2.058789,0 -4.415235,0.446485 -2.356445,0.446484 -5.184179,1.389062 v -4.464844 q 2.852539,-0.79375 5.333007,-1.190625 2.505274,-0.396875 4.712891,-0.396875 5.705078,0 9.028906,2.604493 3.323828,2.579687 3.323828,6.994921 0,3.075782 -1.761133,5.208983 -1.761132,2.1084 -5.010546,2.92695 z"
         id="path8294" />
      <path
         d="m 110.34196,118.43784 h 5.03535 v 6.30039 h -5.03535 z m 4.88653,-3.64629 h -4.7377 v -3.81992 q 0,-2.50528 0.69453,-4.11758 0.69453,-1.61231 2.92695,-3.74551 l 2.23243,-2.20762 q 1.41386,-1.314645 2.03398,-2.480465 0.64492,-1.16582 0.64492,-2.38125 0,-2.207617 -1.63711,-3.571875 -1.6123,-1.364258 -4.29121,-1.364258 -1.95957,0 -4.19199,0.868164 -2.20762,0.868164 -4.61367,2.530078 v -4.663281 q 2.33164,-1.413867 4.71289,-2.108398 2.40605,-0.694532 4.96094,-0.694532 4.56406,0 7.31738,2.406055 2.77812,2.406055 2.77812,6.35 0,1.885156 -0.89296,3.59668 -0.89297,1.686722 -3.1254,3.819922 l -2.18281,2.1332 q -1.16582,1.16582 -1.66191,1.83555 -0.47129,0.64492 -0.66973,1.26504 -0.14883,0.5209 -0.22324,1.26504 -0.0744,0.74414 -0.0744,2.03398 z"
         id="path8296" />
    </g>
    <g
       aria-label="R"
       id="text44227"
       style="font-size:50.8px;line-height:1.25;fill:#ff1e1e;stroke-width:0.264583">
      <path
         d="m 97.978715,11.317979 -2.530078,13.146484 h 6.449223 q 3.79511,0 6.12675,-2.083593 2.35645,-2.108399 2.35645,-5.481836 0,-2.703711 -1.5875,-4.142383 -1.5627,-1.438672 -4.51445,-1.438672 z m 9.202535,15.130859 q 1.5875,0.372071 2.6293,1.835547 1.0666,1.463477 2.45567,5.829102 l 3.15019,10.120312 h -5.2834 l -2.90215,-9.500195 q -1.11621,-3.671094 -2.57968,-4.911328 -1.46348,-1.240235 -4.48965,-1.240235 H 94.630083 L 91.579106,44.233799 H 86.543755 L 93.761919,7.2004011 h 11.286131 q 5.13457,0 7.86309,2.3316406 2.75332,2.3068363 2.75332,6.6724613 0,3.869531 -2.33164,6.697265 -2.33164,2.827734 -6.15157,3.54707 z"
         style="font-style:italic"
         id="path8291" />
    </g>
  </g>
</svg>
