<?xml version="1.0" encoding="UTF-8" ?>
<svg version="1.1" width="16" height="16" xmlns="http://www.w3.org/2000/svg" shape-rendering="crispEdges">
<rect x="11" y="2" width="1" height="1" fill="#6ABE30" />
<rect x="11" y="3" width="1" height="1" fill="#6ABE30" />
<rect x="12" y="3" width="1" height="1" fill="#6ABE30" />
<rect x="2" y="4" width="1" height="1" fill="#6ABE30" />
<rect x="3" y="4" width="1" height="1" fill="#6ABE30" />
<rect x="4" y="4" width="1" height="1" fill="#6ABE30" />
<rect x="5" y="4" width="1" height="1" fill="#6ABE30" />
<rect x="6" y="4" width="1" height="1" fill="#6ABE30" />
<rect x="7" y="4" width="1" height="1" fill="#6ABE30" />
<rect x="8" y="4" width="1" height="1" fill="#6ABE30" />
<rect x="9" y="4" width="1" height="1" fill="#6ABE30" />
<rect x="10" y="4" width="1" height="1" fill="#6ABE30" />
<rect x="11" y="4" width="1" height="1" fill="#6ABE30" />
<rect x="12" y="4" width="1" height="1" fill="#6ABE30" />
<rect x="13" y="4" width="1" height="1" fill="#6ABE30" />
<rect x="11" y="5" width="1" height="1" fill="#6ABE30" />
<rect x="12" y="5" width="1" height="1" fill="#6ABE30" />
<rect x="11" y="6" width="1" height="1" fill="#6ABE30" />
<rect x="11" y="10" width="1" height="1" fill="#6ABE30" />
<rect x="11" y="11" width="1" height="1" fill="#6ABE30" />
<rect x="12" y="11" width="1" height="1" fill="#6ABE30" />
<rect x="2" y="12" width="1" height="1" fill="#6ABE30" />
<rect x="3" y="12" width="1" height="1" fill="#6ABE30" />
<rect x="4" y="12" width="1" height="1" fill="#6ABE30" />
<rect x="5" y="12" width="1" height="1" fill="#6ABE30" />
<rect x="6" y="12" width="1" height="1" fill="#6ABE30" />
<rect x="7" y="12" width="1" height="1" fill="#6ABE30" />
<rect x="8" y="12" width="1" height="1" fill="#6ABE30" />
<rect x="9" y="12" width="1" height="1" fill="#6ABE30" />
<rect x="10" y="12" width="1" height="1" fill="#6ABE30" />
<rect x="11" y="12" width="1" height="1" fill="#6ABE30" />
<rect x="12" y="12" width="1" height="1" fill="#6ABE30" />
<rect x="13" y="12" width="1" height="1" fill="#6ABE30" />
<rect x="11" y="13" width="1" height="1" fill="#6ABE30" />
<rect x="12" y="13" width="1" height="1" fill="#6ABE30" />
<rect x="11" y="14" width="1" height="1" fill="#6ABE30" />
</svg>