<?xml version="1.0" encoding="UTF-8" ?>
<svg version="1.1" width="13" height="16" xmlns="http://www.w3.org/2000/svg" shape-rendering="crispEdges">
<rect x="3" y="2" width="1" height="1" fill="#5FCDE4" />
<rect x="8" y="2" width="1" height="1" fill="#5FCDE4" />
<rect x="9" y="2" width="1" height="1" fill="#5FCDE4" />
<rect x="10" y="2" width="1" height="1" fill="#5FCDE4" />
<rect x="4" y="3" width="1" height="1" fill="#5FCDE4" />
<rect x="9" y="3" width="1" height="1" fill="#5FCDE4" />
<rect x="10" y="3" width="1" height="1" fill="#5FCDE4" />
<rect x="5" y="4" width="1" height="1" fill="#5FCDE4" />
<rect x="8" y="4" width="1" height="1" fill="#5FCDE4" />
<rect x="10" y="4" width="1" height="1" fill="#5FCDE4" />
<rect x="6" y="5" width="1" height="1" fill="#5FCDE4" />
<rect x="7" y="5" width="1" height="1" fill="#5FCDE4" />
<rect x="6" y="6" width="1" height="1" fill="#5FCDE4" />
<rect x="6" y="7" width="1" height="1" fill="#5FCDE4" />
<rect x="6" y="8" width="1" height="1" fill="#5FCDE4" />
<rect x="6" y="9" width="1" height="1" fill="#5FCDE4" />
<rect x="5" y="10" width="1" height="1" fill="#5FCDE4" />
<rect x="6" y="10" width="1" height="1" fill="#5FCDE4" />
<rect x="2" y="11" width="1" height="1" fill="#5FCDE4" />
<rect x="4" y="11" width="1" height="1" fill="#5FCDE4" />
<rect x="7" y="11" width="1" height="1" fill="#5FCDE4" />
<rect x="2" y="12" width="1" height="1" fill="#5FCDE4" />
<rect x="3" y="12" width="1" height="1" fill="#5FCDE4" />
<rect x="8" y="12" width="1" height="1" fill="#5FCDE4" />
<rect x="2" y="13" width="1" height="1" fill="#5FCDE4" />
<rect x="3" y="13" width="1" height="1" fill="#5FCDE4" />
<rect x="4" y="13" width="1" height="1" fill="#5FCDE4" />
<rect x="9" y="13" width="1" height="1" fill="#5FCDE4" />
</svg>