<?xml version="1.0" encoding="UTF-8" ?>
<svg version="1.1" width="14" height="14" xmlns="http://www.w3.org/2000/svg" shape-rendering="crispEdges">
<rect x="4" y="1" width="1" height="1" fill="#5B6EE1" />
<rect x="5" y="1" width="1" height="1" fill="#3F3F74" />
<rect x="6" y="1" width="1" height="1" fill="#639BFF" />
<rect x="7" y="1" width="1" height="1" fill="#639BFF" />
<rect x="8" y="1" width="1" height="1" fill="#3F3F74" />
<rect x="9" y="1" width="1" height="1" fill="#639BFF" />
<rect x="4" y="2" width="1" height="1" fill="#5B6EE1" />
<rect x="5" y="2" width="1" height="1" fill="#639BFF" />
<rect x="6" y="2" width="1" height="1" fill="#639BFF" />
<rect x="7" y="2" width="1" height="1" fill="#639BFF" />
<rect x="8" y="2" width="1" height="1" fill="#639BFF" />
<rect x="9" y="2" width="1" height="1" fill="#639BFF" />
<rect x="4" y="3" width="1" height="1" fill="#5B6EE1" />
<rect x="5" y="3" width="1" height="1" fill="#3F3F74" />
<rect x="6" y="3" width="1" height="1" fill="#639BFF" />
<rect x="7" y="3" width="1" height="1" fill="#639BFF" />
<rect x="8" y="3" width="1" height="1" fill="#3F3F74" />
<rect x="9" y="3" width="1" height="1" fill="#639BFF" />
<rect x="4" y="4" width="1" height="1" fill="#5B6EE1" />
<rect x="5" y="4" width="1" height="1" fill="#639BFF" />
<rect x="6" y="4" width="1" height="1" fill="#639BFF" />
<rect x="7" y="4" width="1" height="1" fill="#639BFF" />
<rect x="8" y="4" width="1" height="1" fill="#639BFF" />
<rect x="9" y="4" width="1" height="1" fill="#639BFF" />
<rect x="4" y="5" width="1" height="1" fill="#5B6EE1" />
<rect x="5" y="5" width="1" height="1" fill="#3F3F74" />
<rect x="6" y="5" width="1" height="1" fill="#639BFF" />
<rect x="7" y="5" width="1" height="1" fill="#639BFF" />
<rect x="8" y="5" width="1" height="1" fill="#3F3F74" />
<rect x="9" y="5" width="1" height="1" fill="#639BFF" />
<rect x="4" y="6" width="1" height="1" fill="#5B6EE1" />
<rect x="5" y="6" width="1" height="1" fill="#5B6EE1" />
<rect x="6" y="6" width="1" height="1" fill="#5B6EE1" />
<rect x="7" y="6" width="1" height="1" fill="#5B6EE1" />
<rect x="8" y="6" width="1" height="1" fill="#5B6EE1" />
<rect x="5" y="8" width="1" height="1" fill="#639BFF" />
<rect x="8" y="8" width="1" height="1" fill="#639BFF" />
<rect x="4" y="9" width="1" height="1" fill="#639BFF" />
<rect x="9" y="9" width="1" height="1" fill="#639BFF" />
<rect x="1" y="10" width="1" height="1" fill="#639BFF" />
<rect x="3" y="10" width="1" height="1" fill="#639BFF" />
<rect x="10" y="10" width="1" height="1" fill="#639BFF" />
<rect x="12" y="10" width="1" height="1" fill="#639BFF" />
<rect x="1" y="11" width="1" height="1" fill="#639BFF" />
<rect x="2" y="11" width="1" height="1" fill="#639BFF" />
<rect x="11" y="11" width="1" height="1" fill="#639BFF" />
<rect x="12" y="11" width="1" height="1" fill="#639BFF" />
<rect x="1" y="12" width="1" height="1" fill="#639BFF" />
<rect x="2" y="12" width="1" height="1" fill="#639BFF" />
<rect x="3" y="12" width="1" height="1" fill="#639BFF" />
<rect x="10" y="12" width="1" height="1" fill="#639BFF" />
<rect x="11" y="12" width="1" height="1" fill="#639BFF" />
<rect x="12" y="12" width="1" height="1" fill="#639BFF" />
</svg>