<?xml version="1.0" encoding="UTF-8" ?>
<svg version="1.1" width="16" height="16" xmlns="http://www.w3.org/2000/svg" shape-rendering="crispEdges">
<rect x="7" y="4" width="1" height="1" fill="#639BFF" />
<rect x="6" y="5" width="1" height="1" fill="#639BFF" />
<rect x="8" y="5" width="1" height="1" fill="#639BFF" />
<rect x="5" y="6" width="1" height="1" fill="#639BFF" />
<rect x="9" y="6" width="1" height="1" fill="#639BFF" />
<rect x="4" y="7" width="1" height="1" fill="#639BFF" />
<rect x="10" y="7" width="1" height="1" fill="#639BFF" />
<rect x="3" y="8" width="1" height="1" fill="#639BFF" />
<rect x="11" y="8" width="1" height="1" fill="#639BFF" />
<rect x="0" y="9" width="1" height="1" fill="#639BFF" />
<rect x="2" y="9" width="1" height="1" fill="#639BFF" />
<rect x="12" y="9" width="1" height="1" fill="#639BFF" />
<rect x="14" y="9" width="1" height="1" fill="#639BFF" />
<rect x="0" y="10" width="1" height="1" fill="#639BFF" />
<rect x="1" y="10" width="1" height="1" fill="#639BFF" />
<rect x="13" y="10" width="1" height="1" fill="#639BFF" />
<rect x="14" y="10" width="1" height="1" fill="#639BFF" />
<rect x="0" y="11" width="1" height="1" fill="#639BFF" />
<rect x="1" y="11" width="1" height="1" fill="#639BFF" />
<rect x="2" y="11" width="1" height="1" fill="#639BFF" />
<rect x="12" y="11" width="1" height="1" fill="#639BFF" />
<rect x="13" y="11" width="1" height="1" fill="#639BFF" />
<rect x="14" y="11" width="1" height="1" fill="#639BFF" />
</svg>